<?xml version="1.0" standalone="no"?>
<!DOCTYPE svg PUBLIC "-//W3C//DTD SVG 20010904//EN"
 "http://www.w3.org/TR/2001/REC-SVG-20010904/DTD/svg10.dtd">
<svg version="1.0" xmlns="http://www.w3.org/2000/svg"
 width="512.000000pt" height="512.000000pt" viewBox="0 0 512.000000 512.000000"
 preserveAspectRatio="xMidYMid meet">

<g transform="translate(0.000000,512.000000) scale(0.100000,-0.100000)"
fill="#000000" stroke="none">
<path d="M2185 4990 c-1065 -68 -1857 -362 -2056 -765 l-44 -88 0 -606 0 -606
32 -66 c109 -222 474 -430 995 -569 91 -24 131 -40 183 -75 106 -72 170 -88
371 -93 l171 -4 5 -66 c8 -104 55 -178 143 -226 37 -19 57 -21 268 -24 l227
-3 0 -43 0 -43 -55 -7 c-137 -16 -312 -107 -428 -223 -312 -312 -313 -809 -2
-1124 316 -321 829 -315 1141 13 124 131 194 277 216 454 22 170 -19 359 -108
506 -51 84 -162 199 -248 255 -83 56 -218 109 -298 119 l-58 7 0 42 0 43 198
4 c176 3 202 6 244 25 107 49 182 154 194 270 4 35 8 63 9 63 2 0 72 9 156 21
861 114 1486 402 1583 729 14 46 16 129 16 614 0 442 -3 572 -14 612 -50 189
-237 367 -531 509 -347 167 -818 280 -1375 330 -208 19 -738 27 -935 15z m671
-960 c616 -48 1121 -201 1433 -436 l63 -47 -25 -13 c-54 -29 -330 -117 -482
-154 -88 -21 -230 -50 -315 -64 -223 -35 -250 -38 -255 -23 -35 116 -93 190
-183 234 l-57 28 -505 0 c-498 0 -506 0 -545 -21 -81 -44 -131 -116 -142 -205
l-6 -49 -36 5 c-394 56 -625 108 -886 202 -166 59 -161 50 -64 122 297 218
814 374 1394 420 148 12 464 12 611 1z m170 -651 c42 -20 84 -71 84 -101 0
-21 -82 -26 -534 -34 -369 -7 -370 -7 -393 -30 -22 -22 -23 -28 -23 -214 0
-257 -17 -240 240 -240 189 0 191 0 215 -25 16 -15 25 -36 25 -55 0 -19 -9
-40 -25 -55 -24 -25 -26 -25 -215 -25 -257 0 -240 17 -240 -240 l0 -191 26
-26 26 -26 377 7 c207 3 411 9 454 12 77 7 77 6 77 -18 0 -48 -42 -112 -90
-135 -44 -23 -47 -23 -508 -23 l-464 0 -29 29 -29 29 0 662 0 662 29 29 29 29
463 0 c448 0 464 -1 505 -21z m-331 -1834 c182 -38 352 -170 434 -335 126
-256 80 -542 -118 -741 -252 -251 -651 -252 -901 0 -253 254 -253 649 0 901
156 156 369 220 585 175z"/>
<path d="M2355 1351 c-45 -20 -70 -60 -70 -112 0 -42 5 -53 33 -81 28 -28 39
-33 82 -33 43 0 54 5 82 33 28 28 33 39 33 82 0 42 -5 54 -31 81 -33 33 -92
46 -129 30z"/>
<path d="M2675 1351 c-45 -20 -70 -60 -70 -112 0 -42 5 -53 33 -81 28 -28 39
-33 82 -33 43 0 54 5 82 33 28 28 33 39 33 82 0 42 -5 54 -31 81 -33 33 -92
46 -129 30z"/>
<path d="M2115 1151 c-45 -20 -70 -60 -70 -112 0 -42 5 -53 33 -81 28 -28 39
-33 82 -33 43 0 54 5 82 33 28 28 33 39 33 82 0 42 -5 54 -31 81 -33 33 -92
46 -129 30z"/>
<path d="M2915 1151 c-45 -20 -70 -60 -70 -112 0 -42 5 -53 33 -81 28 -28 39
-33 82 -33 43 0 54 5 82 33 28 28 33 39 33 82 0 42 -5 54 -31 81 -33 33 -92
46 -129 30z"/>
<path d="M2485 1031 c-89 -23 -179 -102 -217 -189 -11 -26 -22 -74 -25 -107
-10 -122 35 -203 144 -257 64 -31 74 -33 173 -33 99 0 109 2 173 33 109 54
154 135 144 257 -9 114 -80 221 -180 272 -53 26 -158 39 -212 24z m141 -172
c79 -38 120 -164 70 -214 -60 -59 -213 -59 -273 2 -52 51 -11 172 72 213 51
25 78 25 131 -1z"/>
</g>
</svg>
