<?xml version="1.0" standalone="no"?>
<!DOCTYPE svg PUBLIC "-//W3C//DTD SVG 20010904//EN"
 "http://www.w3.org/TR/2001/REC-SVG-20010904/DTD/svg10.dtd">
<svg version="1.0" xmlns="http://www.w3.org/2000/svg"
 width="512.000000pt" height="512.000000pt" viewBox="0 0 512.000000 512.000000"
 preserveAspectRatio="xMidYMid meet">

<g transform="translate(0.000000,512.000000) scale(0.100000,-0.100000)"
fill="#000000" stroke="none">
<path d="M3290 4993 c-98 -9 -237 -39 -340 -73 -534 -174 -921 -609 -1041
-1170 -19 -88 -23 -137 -23 -301 l-1 -196 -40 10 c-68 15 -300 2 -385 -23 -97
-27 -209 -83 -286 -141 l-61 -46 -104 -6 c-199 -12 -319 -64 -450 -196 -84
-85 -87 -89 -223 -355 -176 -346 -190 -384 -190 -541 0 -106 4 -130 29 -204
50 -147 162 -288 283 -358 26 -15 48 -27 50 -28 1 -1 -5 -33 -15 -71 -23 -94
-23 -323 0 -416 75 -304 282 -555 556 -674 43 -19 118 -44 167 -56 85 -22 107
-23 479 -23 344 0 399 2 470 19 372 86 659 371 741 737 23 102 24 320 1 413
-10 38 -16 70 -15 71 2 1 24 14 50 28 152 88 279 277 306 458 l7 50 185 3
c204 3 312 20 482 77 749 249 1194 1044 1016 1814 -68 293 -198 527 -417 746
-219 219 -453 350 -746 417 -152 35 -345 49 -485 35z m278 -184 c576 -62 1046
-469 1187 -1026 142 -565 -92 -1162 -580 -1478 -151 -98 -288 -155 -476 -196
-144 -32 -398 -33 -539 -2 -428 95 -765 355 -958 739 -49 98 -96 235 -119 351
-25 125 -24 386 1 508 23 110 76 265 121 355 85 170 250 368 396 478 280 211
628 308 967 271z m-1692 -1739 l51 -13 32 -97 c82 -252 255 -511 450 -676 l77
-66 129 -511 c128 -507 129 -512 128 -622 -3 -361 -240 -666 -588 -756 -53
-13 -128 -22 -223 -26 l-142 -6 2 368 3 367 51 19 c131 49 234 205 234 353 0
66 -36 143 -86 185 -64 53 -120 63 -317 59 -153 -3 -176 -6 -212 -25 -143 -76
-178 -225 -94 -399 29 -61 106 -133 177 -167 l62 -29 -2 -362 -3 -361 -140 2
c-165 2 -257 22 -380 82 -288 142 -469 476 -426 785 14 101 343 1379 377 1465
86 218 281 382 520 435 79 18 238 16 320 -4z m-980 -287 c-47 -94 -65 -158
-212 -730 l-129 -501 -29 16 c-41 25 -114 108 -143 167 -53 102 -68 234 -39
340 7 28 72 168 144 312 165 327 204 375 361 439 31 13 62 24 69 24 8 0 0 -25
-22 -67z m2056 -810 c110 -35 118 -40 118 -64 0 -36 -28 -125 -57 -183 -27
-53 -132 -166 -155 -166 -9 0 -33 80 -76 248 -35 136 -63 250 -62 253 0 3 26
-7 58 -22 31 -15 110 -45 174 -66z"/>
<path d="M2880 4210 c-170 -26 -329 -139 -405 -290 -50 -99 -70 -187 -69 -310
1 -96 5 -129 27 -195 30 -90 93 -198 173 -297 94 -114 677 -638 740 -664 45
-19 128 -18 170 2 19 9 128 99 242 199 456 401 539 489 625 660 61 121 82 241
67 373 -36 314 -257 524 -552 524 -162 0 -307 -71 -418 -205 -54 -65 -55 -66
-70 -44 -8 12 -43 52 -78 89 -120 125 -285 183 -452 158z"/>
<path d="M1214 2318 c-54 -18 -126 -80 -153 -133 -21 -41 -26 -63 -26 -128 0
-74 2 -80 28 -103 31 -26 66 -31 100 -12 34 18 46 40 47 85 0 59 14 90 50 108
70 36 130 -11 130 -100 0 -47 4 -56 31 -79 41 -35 83 -34 120 3 26 27 29 36
29 98 0 157 -120 275 -274 272 -28 -1 -65 -6 -82 -11z"/>
<path d="M2004 2314 c-58 -21 -118 -75 -148 -136 -20 -41 -26 -67 -26 -121 0
-62 3 -71 29 -98 20 -20 39 -29 61 -29 22 0 41 9 61 29 24 25 29 38 29 79 0
82 56 128 122 101 37 -15 58 -56 58 -111 1 -46 12 -68 47 -86 34 -18 69 -14
99 11 22 19 28 34 32 80 2 32 -1 76 -7 100 -42 147 -211 233 -357 181z"/>
</g>
</svg>
