<?xml version="1.0" standalone="no"?>
<!DOCTYPE svg PUBLIC "-//W3C//DTD SVG 20010904//EN"
 "http://www.w3.org/TR/2001/REC-SVG-20010904/DTD/svg10.dtd">
<svg version="1.0" xmlns="http://www.w3.org/2000/svg"
 width="512.000000pt" height="512.000000pt" viewBox="0 0 512.000000 512.000000"
 preserveAspectRatio="xMidYMid meet">

<g transform="translate(0.000000,512.000000) scale(0.100000,-0.100000)"
fill="#000000" stroke="none">
<path d="M2293 4760 c-32 -13 -1096 -724 -1112 -743 -18 -22 -8 -87 16 -104
41 -31 64 -18 578 323 279 184 512 337 518 339 7 2 476 -306 1042 -683 758
-506 1033 -694 1043 -715 14 -29 8 -87 -9 -87 -5 0 -428 280 -941 621 -513
342 -951 630 -973 640 -48 22 -94 24 -138 5 -18 -7 -486 -315 -1040 -685 -554
-369 -1013 -671 -1019 -671 -16 0 -109 141 -101 152 2 5 195 135 426 290 232
154 428 287 435 296 22 28 14 68 -19 96 -17 14 -38 26 -48 26 -25 0 -881 -571
-913 -609 -31 -36 -43 -85 -35 -136 7 -40 83 -163 134 -216 63 -66 157 -73
235 -18 14 11 29 19 32 19 3 0 7 -546 8 -1212 3 -1124 4 -1215 20 -1244 21
-39 71 -82 106 -92 15 -4 999 -7 2187 -7 l2160 0 53 24 c71 32 147 115 167
183 21 71 20 231 -2 298 -23 72 -97 151 -168 181 l-55 23 0 161 c0 194 -10
255 -59 360 -45 96 -131 193 -217 245 -68 41 -175 79 -221 80 l-33 0 0 254 c0
241 -1 255 -21 280 -26 33 -79 36 -109 6 -19 -19 -20 -33 -20 -275 l0 -255
-90 0 -90 0 0 118 c0 102 -3 124 -22 162 -41 81 -137 112 -216 71 -20 -11 -77
-60 -127 -110 l-90 -91 -156 0 -156 0 -6 138 c-4 95 -12 159 -26 210 -89 307
-351 554 -656 616 l-60 13 -6 55 c-11 100 -78 168 -164 168 -55 0 -102 -30
-200 -129 l-90 -91 -189 0 -189 0 -101 99 c-109 105 -149 127 -218 118 -48 -6
-100 -45 -122 -90 -13 -29 -16 -70 -16 -235 0 -197 -1 -203 -30 -290 -25 -76
-30 -105 -30 -188 0 -55 6 -121 14 -149 7 -27 15 -56 17 -64 3 -9 -17 -19 -63
-32 -98 -27 -174 -64 -193 -93 -25 -38 -12 -83 30 -103 32 -15 36 -15 94 10
66 29 166 57 200 57 12 0 36 -16 53 -36 54 -61 165 -132 252 -161 77 -25 92
-27 286 -27 113 -1 224 2 248 7 l42 7 0 -600 0 -601 25 -24 c13 -14 35 -25 49
-25 58 0 101 -42 94 -91 l-3 -24 -160 0 -160 0 -5 471 c-5 446 -6 473 -24 493
-26 29 -86 29 -112 0 -18 -20 -19 -44 -22 -395 l-3 -374 -32 24 c-18 13 -42
27 -54 31 l-23 6 0 345 c0 331 -1 345 -20 364 -27 27 -83 27 -110 -2 -19 -21
-20 -33 -20 -413 l0 -392 23 -20 c12 -11 39 -23 60 -26 22 -3 46 -12 54 -19
21 -17 35 -57 28 -79 -6 -18 -19 -19 -164 -19 l-158 0 -6 107 c-4 58 -7 272
-7 475 0 355 -1 369 -20 388 -28 28 -81 26 -108 -3 -22 -23 -22 -24 -22 -495
l0 -472 -330 0 -330 0 0 443 c0 410 2 448 20 527 25 103 83 225 144 304 25 33
48 67 51 77 9 27 -16 72 -46 83 -46 16 -77 0 -122 -64 -23 -32 -45 -59 -49
-59 -5 -1 -8 268 -8 597 l0 599 903 601 c496 331 910 602 920 602 9 0 422
-270 917 -600 l900 -600 0 -150 c0 -137 2 -152 20 -170 33 -33 75 -30 108 6
19 22 22 36 22 119 l0 94 51 -32 c40 -25 62 -31 103 -31 71 0 112 28 173 117
70 101 83 129 83 183 0 99 60 54 -1154 863 -611 407 -1124 745 -1139 751 -34
12 -143 12 -174 0z m-823 -1746 c52 -53 109 -102 127 -110 39 -17 465 -20 508
-4 14 5 72 55 129 110 56 55 106 97 109 93 4 -3 7 -100 7 -213 0 -201 1 -209
25 -263 100 -218 6 -470 -215 -576 l-75 -36 -230 0 -230 0 -68 32 c-93 44
-169 119 -215 212 -36 73 -37 78 -37 185 0 98 3 119 28 177 27 64 27 69 27
277 0 117 3 212 8 212 4 0 50 -43 102 -96z m1137 -159 c190 -60 336 -192 427
-386 38 -80 66 -199 66 -276 l0 -47 -52 51 c-71 69 -109 86 -170 81 -52 -5
-89 -27 -122 -72 -19 -25 -21 -45 -26 -254 -5 -202 -8 -233 -28 -284 -71 -183
-38 -391 87 -557 l40 -54 -49 -17 c-97 -33 -168 -104 -196 -197 -19 -63 -18
-238 1 -293 8 -23 15 -44 15 -46 0 -2 -33 -4 -72 -4 l-73 0 -2 50 c-1 27 -11
67 -22 88 -22 43 -80 98 -117 112 l-24 10 0 594 0 594 35 22 c55 34 143 139
181 215 71 145 81 308 28 455 -33 91 -46 240 -20 240 8 0 50 -11 93 -25z m767
-945 l258 0 114 112 114 111 0 -202 0 -203 33 -71 c30 -68 32 -79 32 -187 0
-109 -2 -119 -32 -182 -38 -80 -109 -159 -178 -199 l-50 -29 -288 0 c-324 0
-318 -1 -409 79 -140 124 -186 326 -115 502 26 64 27 72 27 271 0 112 3 208 7
211 4 4 57 -42 118 -103 l112 -110 257 0z m1527 -1033 c52 -35 69 -78 69 -177
0 -99 -17 -142 -69 -177 l-34 -23 -1022 0 -1022 0 -34 23 c-52 35 -69 78 -69
177 0 99 17 142 69 177 l34 23 1022 0 1022 0 34 -23z"/>
<path d="M1608 2670 c-28 -28 -30 -35 -26 -81 6 -62 33 -92 79 -91 51 1 74 32
74 98 0 49 -4 59 -28 80 -37 32 -62 30 -99 -6z"/>
<path d="M2023 2690 c-31 -12 -43 -41 -43 -99 0 -38 5 -56 20 -71 53 -53 130
-9 130 75 0 57 -7 73 -41 90 -32 17 -35 17 -66 5z"/>
<path d="M1751 2420 c-50 -21 -65 -70 -35 -115 15 -23 15 -27 -5 -58 -34 -55
-25 -98 26 -126 33 -17 71 -3 97 36 l24 35 18 -31 c23 -39 61 -55 97 -42 49
19 59 67 28 129 -17 33 -17 40 -5 57 20 27 17 69 -5 96 -18 22 -28 24 -118 26
-54 2 -109 -2 -122 -7z"/>
<path d="M3129 1741 c-24 -24 -29 -38 -29 -76 0 -38 5 -52 29 -76 37 -37 65
-37 102 0 24 24 29 38 29 76 0 38 -5 52 -29 76 -16 16 -39 29 -51 29 -12 0
-35 -13 -51 -29z"/>
<path d="M3543 1760 c-30 -12 -43 -41 -43 -97 0 -81 48 -120 109 -89 34 18 41
33 41 91 0 57 -7 73 -41 90 -32 17 -35 17 -66 5z"/>
<path d="M3271 1490 c-50 -21 -66 -75 -35 -118 14 -21 14 -25 -5 -56 -28 -44
-27 -81 4 -111 40 -41 90 -30 125 27 l18 30 16 -31 c28 -54 75 -66 120 -30 32
25 34 64 6 118 -17 34 -18 41 -5 51 21 17 19 73 -4 101 -18 22 -28 24 -118 26
-54 2 -109 -2 -122 -7z"/>
</g>
</svg>
