<?xml version="1.0" standalone="no"?>
<!DOCTYPE svg PUBLIC "-//W3C//DTD SVG 20010904//EN"
 "http://www.w3.org/TR/2001/REC-SVG-20010904/DTD/svg10.dtd">
<svg version="1.0" xmlns="http://www.w3.org/2000/svg"
 width="512.000000pt" height="512.000000pt" viewBox="0 0 512.000000 512.000000"
 preserveAspectRatio="xMidYMid meet">

<g transform="translate(0.000000,512.000000) scale(0.100000,-0.100000)"
fill="#000000" stroke="none">
<path d="M2385 5114 c-16 -2 -73 -9 -125 -15 -263 -30 -560 -121 -808 -248
-105 -54 -290 -172 -358 -227 -36 -30 -45 -33 -68 -24 -48 18 -137 12 -192
-14 -97 -45 -154 -142 -154 -263 l0 -63 -72 0 c-56 0 -85 -6 -124 -24 -87 -41
-154 -143 -154 -236 0 -51 26 -130 54 -164 l24 -28 -45 -97 c-92 -198 -166
-451 -199 -686 -21 -146 -24 -475 -5 -615 60 -448 237 -869 511 -1215 133
-169 350 -371 522 -486 35 -23 65 -44 67 -46 2 -1 -16 -23 -42 -48 -25 -26
-59 -72 -74 -103 -25 -50 -28 -68 -28 -152 0 -82 4 -103 27 -152 34 -73 98
-137 174 -174 l59 -29 1169 -3 c1301 -3 1229 -6 1333 65 64 43 126 131 143
204 16 68 8 173 -18 232 -12 26 -46 74 -77 106 l-56 59 59 41 c451 306 804
797 956 1330 192 672 82 1399 -298 1981 -149 229 -387 490 -447 490 -33 0 -72
-43 -71 -79 1 -28 18 -51 115 -150 340 -347 552 -781 624 -1270 20 -140 22
-443 5 -581 -78 -596 -379 -1134 -838 -1500 -107 -85 -256 -183 -265 -173 -4
4 -48 183 -99 398 -87 364 -92 394 -87 465 13 170 70 276 224 418 110 100 151
156 185 248 19 52 22 85 26 282 l4 222 265 0 265 0 30 30 30 30 -4 328 c-5
369 -7 385 -82 537 -90 183 -260 321 -464 377 -70 19 -110 22 -454 26 -445 5
-467 2 -536 -64 l-47 -45 -405 0 -405 0 -47 45 c-62 59 -100 66 -363 66 -118
0 -215 4 -215 9 0 17 -82 93 -118 109 -20 8 -73 18 -117 21 l-80 6 -5 80 c-3
44 -13 96 -21 115 l-16 35 66 48 c276 203 632 346 1006 404 153 24 478 24 635
0 334 -51 632 -163 905 -337 86 -55 115 -70 135 -65 51 12 78 79 48 117 -48
60 -398 248 -589 315 -138 49 -324 96 -469 118 -99 15 -460 28 -525 19z
m-1359 -688 l34 -34 0 -112 c0 -110 0 -112 29 -141 29 -29 31 -29 141 -29
l112 0 34 -34 c28 -28 34 -41 34 -78 0 -89 -46 -118 -189 -118 -55 0 -107 -3
-116 -6 -32 -13 -45 -59 -45 -166 0 -114 -8 -136 -60 -163 -38 -20 -75 -19
-111 2 -46 27 -59 68 -59 182 0 95 -2 104 -25 126 -22 23 -31 25 -126 25 -118
0 -159 14 -183 65 -20 41 -20 68 -2 104 27 51 41 56 173 61 162 6 163 8 163
157 0 147 28 193 118 193 37 0 50 -6 78 -34z m1933 -599 c29 -75 110 -127 198
-127 117 -1 171 -22 217 -84 19 -24 22 -47 27 -194 7 -186 22 -250 84 -352 63
-103 184 -204 288 -241 l39 -14 -4 -220 -3 -220 -31 -65 c-32 -69 -61 -102
-162 -188 -100 -86 -183 -216 -219 -345 -7 -29 -18 -105 -23 -170 -7 -99 -13
-128 -39 -182 -117 -251 -436 -317 -645 -134 -46 40 -46 41 -46 103 l0 63 57
7 c158 19 264 130 262 275 -1 119 -50 200 -149 250 l-63 31 -187 0 -187 0 -61
-31 c-103 -51 -151 -130 -151 -249 -1 -149 102 -257 262 -276 l57 -7 0 -62 c0
-61 -1 -64 -41 -100 -68 -61 -160 -99 -253 -103 -105 -5 -171 10 -244 58 -124
80 -178 184 -192 370 -5 63 -17 140 -26 170 -21 72 -85 194 -128 245 -28 32
-39 39 -71 39 -27 0 -42 -6 -56 -24 -29 -38 -23 -66 31 -147 57 -86 87 -172
96 -281 6 -74 2 -96 -86 -467 -51 -215 -96 -394 -100 -398 -8 -9 -173 100
-275 181 -38 30 -122 108 -185 171 -575 579 -793 1423 -571 2213 32 111 94
275 136 359 l25 49 60 0 60 0 -19 -37 c-10 -21 -29 -69 -42 -108 -21 -66 -23
-90 -27 -393 -4 -346 -2 -370 44 -391 17 -7 113 -11 284 -11 l258 0 4 -222 c4
-211 5 -227 30 -290 30 -80 70 -136 102 -144 33 -8 84 21 92 52 5 19 -2 46
-25 93 -42 87 -51 151 -51 363 l0 176 29 7 c36 8 125 61 186 110 61 50 139
170 166 253 16 52 23 104 28 234 5 147 8 170 27 195 39 53 81 73 150 73 98 0
156 16 204 57 24 20 49 52 56 70 l14 33 390 0 390 0 9 -23z m-360 -2666 c58
-45 112 -76 170 -98 l54 -20 -35 -26 c-72 -55 -125 -72 -228 -72 -103 0 -156
17 -228 72 l-35 26 64 24 c35 13 93 46 129 73 36 26 67 49 69 49 2 1 20 -12
40 -28z"/>
<path d="M1902 2837 c-20 -21 -22 -34 -22 -149 0 -125 0 -127 26 -147 35 -28
69 -26 99 4 24 23 25 30 25 149 0 123 0 125 -26 145 -35 28 -75 27 -102 -2z"/>
<path d="M3116 2839 c-26 -20 -26 -22 -26 -149 0 -127 0 -129 26 -149 15 -12
37 -21 49 -21 12 0 34 9 49 21 26 20 26 22 26 148 0 120 -1 129 -23 149 -29
28 -67 28 -101 1z"/>
</g>
</svg>
