<?xml version="1.0" standalone="no"?>
<!DOCTYPE svg PUBLIC "-//W3C//DTD SVG 20010904//EN"
 "http://www.w3.org/TR/2001/REC-SVG-20010904/DTD/svg10.dtd">
<svg version="1.0" xmlns="http://www.w3.org/2000/svg"
 width="512.000000pt" height="512.000000pt" viewBox="0 0 512.000000 512.000000"
 preserveAspectRatio="xMidYMid meet">

<g transform="translate(0.000000,512.000000) scale(0.100000,-0.100000)"
fill="#000000" stroke="none">
<path d="M2724 3910 c-47 -24 -84 -81 -84 -132 0 -45 30 -98 70 -125 l33 -23
521 0 c502 0 522 1 554 20 100 61 96 207 -8 261 -32 18 -67 19 -540 19 -486 0
-507 -1 -546 -20z"/>
<path d="M2709 3427 c-92 -61 -90 -181 4 -251 28 -21 35 -21 672 -21 634 0
644 0 671 21 94 70 96 190 5 251 l-34 23 -642 0 -642 0 -34 -23z"/>
<path d="M140 2060 l0 -270 2145 0 2145 0 0 270 0 270 -2145 0 -2145 0 0 -270z"/>
</g>
</svg>
