<?xml version="1.0" standalone="no"?>
<!DOCTYPE svg PUBLIC "-//W3C//DTD SVG 20010904//EN"
 "http://www.w3.org/TR/2001/REC-SVG-20010904/DTD/svg10.dtd">
<svg version="1.0" xmlns="http://www.w3.org/2000/svg"
 width="512.000000pt" height="512.000000pt" viewBox="0 0 512.000000 512.000000"
 preserveAspectRatio="xMidYMid meet">

<g transform="translate(0.000000,512.000000) scale(0.100000,-0.100000)"
fill="#000000" stroke="none">
<path d="M1165 4689 c-492 -72 -912 -414 -1079 -879 -148 -411 -90 -863 157
-1230 38 -56 300 -325 1046 -1073 548 -549 1015 -1010 1039 -1024 102 -60 244
-79 353 -47 73 22 114 44 177 95 l53 43 -945 946 c-632 633 -963 972 -1003
1026 -111 151 -192 332 -234 525 -31 136 -33 396 -6 531 97 483 437 874 893
1027 l85 29 -48 11 c-137 31 -350 40 -488 20z"/>
</g>
</svg>
